<svg id="eWCqDZFztNV1" xmlns="http://www.w3.org/2000/svg" xmlns:xlink="http://www.w3.org/1999/xlink" viewBox="0 0 300 300" shape-rendering="geometricPrecision" text-rendering="geometricPrecision" style="background-color:transparent"><defs><linearGradient id="eWCqDZFztNV4-fill" x1="0" y1="0" x2="0.906308" y2="0.422618" spreadMethod="pad" gradientUnits="objectBoundingBox" gradientTransform="translate(0 0)"><stop id="eWCqDZFztNV4-fill-0" offset="0%" stop-color="#b13cff"/><stop id="eWCqDZFztNV4-fill-1" offset="100%" stop-color="#f1dbff"/></linearGradient></defs><rect width="300" height="300" rx="0" ry="0" fill="rgba(0,0,0,0)"/><g transform="matrix(2.917316 0 0 3.526424 4.1342-26.3212)"><path d="M62.53,24.277l-5.508,5.838-15.834.05-4.667-5.695h-10.742L15.217,33.39L5,74.668l9.036-.511L32.903,61.438h34.787L86.943,75.723L95,75.365L83.993,33.4l-11.09-9.073-10.373-.05ZM44.743,33.565h2.516l1.263,2.182-1.263,2.18h-2.516l-1.26-2.18l1.26-2.182Zm7.995,0h2.51l1.257,2.182-1.256,2.18h-2.511l-1.26-2.18l1.26-2.182Zm-23.336,1.27l6.82,3.933v7.864l-5.826,3.37-.986.562-6.82-3.932v-7.864l6.812-3.932Zm38.022,0h5.24v5.253h5.245v5.243h-5.245v5.233h-5.24v-5.233h-5.246v-5.243h5.246v-5.252ZM29.402,39.372l-2.88,1.67v3.317l2.888,1.669l2.88-1.67v-3.317l-2.888-1.67ZM42.172,52.52h15.655v5.243h-15.654v-5.243Z" fill="url(#eWCqDZFztNV4-fill)"/></g></svg>