<svg id="eNElY7vLPwk1" xmlns="http://www.w3.org/2000/svg" xmlns:xlink="http://www.w3.org/1999/xlink" viewBox="0 0 230 41" shape-rendering="geometricPrecision" text-rendering="geometricPrecision" style="background-color:transparent"><defs><linearGradient id="eNElY7vLPwk5-fill" x1="0" y1="0" x2="0.906308" y2="0.422618" spreadMethod="pad" gradientUnits="objectBoundingBox" gradientTransform="translate(0 0)"><stop id="eNElY7vLPwk5-fill-0" offset="0%" stop-color="#b13cff"/><stop id="eNElY7vLPwk5-fill-1" offset="100%" stop-color="#f1dbff"/></linearGradient></defs><g transform="matrix(2.19325 0 0 2.19325 85.048863 5.5311)"><path d="M0.84,1.05v11.55h2.63v-4.28h1.58C7.31,8.32,9,6.99,9,4.61c0-2.4-1.69-3.56-3.95-3.56ZM3.47,6.22v-3.07h.74c1.04,0,2.02.35,2.02,1.54c0,1.18-.98,1.53-2.02,1.53Zm12.39,4c-2.64,0-3.81-1.85-3.81-3.4c0-1.54,1.17-3.39,3.81-3.39c1.35,0,2.27.71,2.27.71L19.25,1.9c0,0-1.29-1.06-3.79-1.06-3.28,0-6.26,2.69-6.26,6.01c0,3.3,2.99,5.96,6.26,5.96c2.5,0,3.79-1.06,3.79-1.06L18.13,9.51c0,0-.92.71-2.27.71Zm7.03-4.79h.03l4.59,7.17h2.63v-11.55h-2.63v7.17h-.03L22.89,1.05h-2.63v11.55h2.63ZM38.43,1.05h-6.61v11.55h6.61v-2.31h-3.98v-2.32h3.81v-2.31h-3.81v-2.3h3.98ZM48.8,12.6h2.92L55.01,1.05h-2.92L50.12,8.97h-.07l-2.1-7.92h-1.99l-2.1,7.92h-.07L41.82,1.05h-2.93L42.18,12.6h2.93l1.85-6.48ZM59.89,0.84c-1.86,0-3.76,1.37-3.76,3.53c0,1.2.81,2.28,2.19,2.97c1.38.68,2.61,1.06,2.61,1.9c0,1.08-1.09,1.13-1.67,1.13-1.29,0-2.83-1.3-2.83-1.3l-1.31,2.21c0,0,1.64,1.53,4.34,1.53c2.25,0,4.35-.97,4.35-3.72c0-1.52-1.41-2.61-2.7-3.15-1.32-.56-2.41-1.03-2.41-1.67c0-.63.48-1.04,1.37-1.04c1.19,0,2.34.8,2.34.8l1.07-2.1c0,0-1.49-1.09-3.59-1.09Z" fill="#fff"/></g><g transform="matrix(.765458 0 0 0.765458 1.172562-17.7729)"><path d="M62.53,24.277l-5.508,5.838-15.834.05-4.667-5.695h-10.742L15.217,33.39L5,74.668l9.036-.511L32.903,61.438h34.787L86.943,75.723L95,75.365L83.993,33.4l-11.09-9.073-10.373-.05ZM44.743,33.565h2.516l1.263,2.182-1.263,2.18h-2.516l-1.26-2.18l1.26-2.182Zm7.995,0h2.51l1.257,2.182-1.256,2.18h-2.511l-1.26-2.18l1.26-2.182Zm-23.336,1.27l6.82,3.933v7.864l-5.826,3.37-.986.562-6.82-3.932v-7.864l6.812-3.932Zm38.022,0h5.24v5.253h5.245v5.243h-5.245v5.233h-5.24v-5.233h-5.246v-5.243h5.246v-5.252ZM29.402,39.372l-2.88,1.67v3.317l2.888,1.669l2.88-1.67v-3.317l-2.888-1.67ZM42.172,52.52h15.655v5.243h-15.654v-5.243Z" fill="url(#eNElY7vLPwk5-fill)"/></g></svg>